<svg xmlns="http://www.w3.org/2000/svg" xmlns:xlink="http://www.w3.org/1999/xlink" width="297.384" height="622.279" viewBox="0 0 297.384 622.279"><defs><style>.a{fill:#42484b;}.b{fill:#f5b014;}.c{fill:#f9d217;}.d{fill:#fbe525;}.e{fill:#0d2675;}.f{fill:#4b9aea;}.g{fill:#031944;}.h{fill:#207ac7;}.i{fill:#1a4be8;}.j{fill:none;}.k{fill:#1569b2;}.l{fill:#fffade;}.m{opacity:0.5;mix-blend-mode:color-dodge;isolation:isolate;}.n{fill:url(#a);}.o{fill:url(#b);}.p{fill:url(#c);}.q{fill:url(#d);}.r{fill:url(#e);}.s{fill:url(#f);}.t{fill:url(#g);}</style><linearGradient id="a" x1="0.5" y1="4.024" x2="0.5" y2="-0.965" gradientUnits="objectBoundingBox"><stop offset="0" stop-color="#ffe954"/><stop offset="0.998" stop-color="#ffae00"/></linearGradient><linearGradient id="b" x1="0.5" y1="3.871" x2="0.5" y2="-2.165" xlink:href="#a"/><linearGradient id="c" x1="0.5" y1="2.758" x2="0.5" y2="-10.117" xlink:href="#a"/><linearGradient id="d" x1="0.5" y1="-1.589" x2="0.5" y2="-9.516" xlink:href="#a"/><linearGradient id="e" x1="0.5" y1="-1.68" x2="0.5" y2="-9.607" xlink:href="#a"/><linearGradient id="f" x1="0.5" y1="2.59" x2="0.5" y2="-10.285" xlink:href="#a"/><linearGradient id="g" x1="0.5" y1="3.819" x2="0.5" y2="-2.217" xlink:href="#a"/></defs><g transform="translate(-378.339 -110.108)"><g transform="translate(484.822 430.467)"><path class="a" d="M499.34,566.383H444.89c0-100.641-34.3-213.73,0-301.92,16.952,13.173,37.5,13.173,54.45,0C533.643,352.654,499.34,465.742,499.34,566.383Z" transform="translate(-429.644 -264.463)"/><path class="b" d="M443.785,412.562c-5.419-49.676-10.537-96.6-.179-138.062l2.038-8.154,8.169,1.982a41.041,41.041,0,0,0,19.447,0l8.169-1.98,2.036,8.152c10.359,41.464,5.241,88.384-.178,138.06C480.816,435.205,463.114,519.4,463.114,519.4S446.259,435.23,443.785,412.562Z" transform="translate(-421.066 -262.439)"/><path class="c" d="M447.808,406.354c-5.317-48.722-10.375-95.1-.382-135.092a49.5,49.5,0,0,0,23.438,0c9.993,40,4.935,86.371-.382,135.092-2.462,22.571-11.2,68.48-11.2,68.48S450.27,428.925,447.808,406.354Z" transform="translate(-416.675 -257.151)"/><path class="d" d="M454.785,417.245c-1.245-7.748-2.32-15.118-2.949-20.877-4.911-45.011-9.568-87.684-2.277-124.541,1.731.156,3.468.235,5.2.235s3.472-.079,5.2-.235c7.289,36.852,2.634,79.53-2.277,124.538C457.058,402.127,456,409.5,454.785,417.245Z" transform="translate(-412.29 -256.543)"/></g><g transform="translate(378.339 110.108)"><g transform="translate(54.872 52.247)"><path class="e" d="M486.312,271.731a18.734,18.734,0,0,1-.751,1.988,21.691,21.691,0,0,1-19.893,13.04h-6.718a21.678,21.678,0,0,1-19.893-13.04h-.01a18.25,18.25,0,0,1-.741-1.988A363.991,363.991,0,0,1,486.312,271.731Z" transform="translate(-368.72 10.613)"/><path class="f" d="M432.66,237.795c.747.027,4.157.183,4.9.208a20.27,20.27,0,0,0-3.823,1.415,7.85,7.85,0,0,0-1.648,1.262,8.8,8.8,0,0,0-2.576,6.233,8.622,8.622,0,0,0,2.6,6.233,8.809,8.809,0,0,1-.643-15.35Z" transform="translate(-380.58 -25.032)"/><path class="g" d="M486.312,271.731l-.751,1.988a362.973,362.973,0,0,1-46.505,0h-.01a18.25,18.25,0,0,1-.741-1.988A363.991,363.991,0,0,1,486.312,271.731Z" transform="translate(-368.72 10.613)"/><path class="h" d="M521.079,245.3a8.735,8.735,0,0,1-2.584,6.222,8.265,8.265,0,0,1-2.547,1.772q-41.754-1.968-83.548,0a8.79,8.79,0,0,1-2.547-14.217,8.013,8.013,0,0,1,1.638-1.285h1.164q41.5,1.946,83.037,0h1.164A8.768,8.768,0,0,1,521.079,245.3Z" transform="translate(-380.587 -25.03)"/><path class="i" d="M514.67,238.469h-1.164q-41.5,1.946-83.037,0H429.3a6.049,6.049,0,0,1,.886-.473,8.565,8.565,0,0,1,3.7-.826h76.2a8.581,8.581,0,0,1,3.7.826A6.029,6.029,0,0,1,514.67,238.469Z" transform="translate(-378.399 -25.704)"/><path class="i" d="M513.29,245.775l-.025.023h-.012a1.064,1.064,0,0,0-.5.208h-.012a8.655,8.655,0,0,1-3.13.581h-76.2a8.587,8.587,0,0,1-3.117-.581,1.1,1.1,0,0,0-.521-.208c-.012,0-.025-.012-.037-.023Q471.5,243.807,513.29,245.775Z" transform="translate(-377.928 -17.508)"/><path class="h" d="M513.327,264.284v3.285a11.9,11.9,0,0,1-11.9,11.888H441.617a11.89,11.89,0,0,1-11.886-11.888v-3.285a1.165,1.165,0,0,0,.861-.523h81.885A1.171,1.171,0,0,0,513.327,264.284Z" transform="translate(-377.94 2.894)"/><path class="h" d="M521.079,254.8a8.809,8.809,0,0,1-5.106,7.982h-.013l-.012.01a.044.044,0,0,0-.025.013,1.056,1.056,0,0,0-.508.208H515.4a8.654,8.654,0,0,1-3.13.581h-76.2a8.587,8.587,0,0,1-3.117-.581h-.012a1.056,1.056,0,0,0-.508-.208.043.043,0,0,0-.025-.013c-.012,0-.012,0-.025-.01h-.01a8.788,8.788,0,0,1-2.524-14.2,8.48,8.48,0,0,1,2.524-1.758,1.15,1.15,0,0,0,.631-.268,8.563,8.563,0,0,1,3.068-.558h76.2a8.439,8.439,0,0,1,3.092.571,1.105,1.105,0,0,0,.608.255A8.764,8.764,0,0,1,521.079,254.8Z" transform="translate(-380.587 -16.219)"/><path class="h" d="M521.079,263.608a8.713,8.713,0,0,1-2.584,6.222,8.226,8.226,0,0,1-2.547,1.77h-.012a.012.012,0,0,0-.013.012,1.018,1.018,0,0,0-.521.218h-.013a8.536,8.536,0,0,1-3.117.583h-76.2a8.448,8.448,0,0,1-3.092-.571,1.171,1.171,0,0,0-.571-.243H432.4a8.788,8.788,0,0,1-2.547-14.215,8.482,8.482,0,0,1,2.524-1.758,1.151,1.151,0,0,0,.631-.268,8.563,8.563,0,0,1,3.068-.558h76.2a8.44,8.44,0,0,1,3.092.571,1.105,1.105,0,0,0,.608.255A8.764,8.764,0,0,1,521.079,263.608Z" transform="translate(-380.587 -6.741)"/><path class="f" d="M431.974,265.894v3.3a11.8,11.8,0,0,0,3.89,8.781,11.887,11.887,0,0,1-6.131-10.4V264.3a1.139,1.139,0,0,0,.851-.542h81.9a1.112,1.112,0,0,0,.747.515h.027c.025.027.025.027.052.027v1.081H432.85C432.18,265.367,431.983,265.246,431.974,265.894Z" transform="translate(-377.938 2.889)"/><path class="f" d="M518.451,248.562a1.084,1.084,0,0,0-.23-.131,1.1,1.1,0,0,1-.619-.255,8.11,8.11,0,0,0-3.09-.567H438.326a8.613,8.613,0,0,0-3.065.54,1.121,1.121,0,0,1-.643.282,8.922,8.922,0,0,0-2.524,1.752,8.757,8.757,0,0,0-2.576,6.235,8.648,8.648,0,0,0,2.628,6.233,8.77,8.77,0,0,1-2.293-14.063,8.308,8.308,0,0,1,2.524-1.777,1.031,1.031,0,0,0,.619-.257,8.43,8.43,0,0,1,1.8-.465h.052a6.424,6.424,0,0,1,1.21-.1h76.211a8.765,8.765,0,0,1,3.09.567,1.106,1.106,0,0,0,.594.257A8.9,8.9,0,0,1,518.451,248.562Z" transform="translate(-380.58 -16.222)"/><path class="f" d="M518.451,257.373a.99.99,0,0,0-.23-.129,1.107,1.107,0,0,1-.619-.259,8.15,8.15,0,0,0-3.09-.567H438.326a8.112,8.112,0,0,0-3.065.567,1.325,1.325,0,0,1-.643.259,8.872,8.872,0,0,0-2.524,1.75,8.753,8.753,0,0,0-2.576,6.235,8.629,8.629,0,0,0,2.6,6.233,8.812,8.812,0,0,1,.257-15.84.9.9,0,0,0,.619-.257,8.158,8.158,0,0,1,1.623-.438h.052a8.273,8.273,0,0,1,1.391-.129h76.211a8.256,8.256,0,0,1,3.09.591.989.989,0,0,0,.515.205h.027c.025.027.025.027.052.027A8.9,8.9,0,0,1,518.451,257.373Z" transform="translate(-380.58 -6.746)"/><g transform="translate(54.089 229.764)"><path class="i" d="M433.32,245.986c-.8.025-1.6.052-2.4.1a6.424,6.424,0,0,1,1.21-.1Z" transform="translate(-430.745 -245.986)"/><path class="i" d="M512.045,255.594a6.068,6.068,0,0,1-1.364.129H434.495a8.914,8.914,0,0,1-3.117-.567h-.025a.7.7,0,0,0-.49-.205l-.025-.025a8.273,8.273,0,0,1,1.391-.129H508.44a8.256,8.256,0,0,1,3.09.591A.989.989,0,0,0,512.045,255.594Z" transform="translate(-430.838 -236.51)"/><path class="i" d="M511.818,264.271a6.078,6.078,0,0,1-1.364.131H434.268a8.811,8.811,0,0,1-3.09-.567.579.579,0,0,0-.129-.079h80.022A1.112,1.112,0,0,0,511.818,264.271Z" transform="translate(-430.611 -226.875)"/></g><path class="e" d="M512.3,246.939v.01a1.182,1.182,0,0,0,.423.9,1.105,1.105,0,0,0,.608.255q-41.776,1.964-83.6,0a1.159,1.159,0,0,0,1.042-1.154v-.01a1.183,1.183,0,0,0-.461-.934,1.1,1.1,0,0,0-.521-.208.09.09,0,0,0-.06-.012v-.01h.023q41.757-1.968,83.548,0h.025v.01c-.025,0-.037,0-.05.012h-.012a1.064,1.064,0,0,0-.5.208h-.012A1.189,1.189,0,0,0,512.3,246.939Z" transform="translate(-377.94 -17.508)"/><path class="e" d="M512.3,255.752v.01a1.182,1.182,0,0,0,.423.9,1.105,1.105,0,0,0,.608.255q-41.776,1.964-83.6,0a1.159,1.159,0,0,0,1.042-1.154v-.01a1.183,1.183,0,0,0-.461-.934H430.3a1.056,1.056,0,0,0-.508-.208.043.043,0,0,0-.025-.013h-.035v-.01h.01q41.757-1.968,83.573,0h.013v.01H513.3a.044.044,0,0,0-.025.013,1.056,1.056,0,0,0-.508.208h-.012A1.189,1.189,0,0,0,512.3,255.752Z" transform="translate(-377.94 -8.029)"/><path class="e" d="M513.327,265.728q-41.776,1.983-83.6,0a1.165,1.165,0,0,0,.861-.523,1.242,1.242,0,0,0,.181-.629v-.013a1.158,1.158,0,0,0-1.007-1.154q41.739-1.983,83.523,0a.012.012,0,0,0-.013.012,1.018,1.018,0,0,0-.521.218h-.013a1.161,1.161,0,0,0-.448.924v.013a1.223,1.223,0,0,0,.183.629A1.171,1.171,0,0,0,513.327,265.728Z" transform="translate(-377.94 1.45)"/><g transform="translate(134.779 246.581)"><path class="j" d="M470.324,255.332a1.105,1.105,0,0,1-.608-.255Z" transform="translate(-469.716 -253.026)"/><path class="j" d="M470.248,254.089a1.056,1.056,0,0,0-.508.208Z" transform="translate(-469.69 -254.089)"/></g><path class="k" d="M487.539,245.316a8.668,8.668,0,0,1-2.6,6.208,8.309,8.309,0,0,1-2.524,1.777c-7.984-.361-15.969-.643-23.953-.772a133.25,133.25,0,0,0,6.953-14.14c5.589-.129,11.154-.336,16.741-.594h1.16A8.809,8.809,0,0,1,487.539,245.316Z" transform="translate(-347.041 -25.032)"/><path class="i" d="M482.883,245.666s-.027,0-.027.025h-.025a1.053,1.053,0,0,0-.49.208h-.025a8.858,8.858,0,0,1-3.117.567H458.027c.309-.517.594-1.031.9-1.571C466.914,245.023,474.9,245.3,482.883,245.666Z" transform="translate(-347.508 -17.397)"/><path class="k" d="M510.322,264.3v3.271a11.883,11.883,0,0,1-11.874,11.9H438.617a11.48,11.48,0,0,1-6.1-1.725,133.542,133.542,0,0,0,19.136-12.621c.567-.438,1.133-.9,1.7-1.366H509.5A1.215,1.215,0,0,0,510.322,264.3Z" transform="translate(-374.948 2.889)"/><path class="k" d="M494.614,254.794a8.807,8.807,0,0,1-5.124,7.984v.025h-.027a1.042,1.042,0,0,0-.515.208h-.025a8.3,8.3,0,0,1-3.117.591H451.884c.49-.591.955-1.185,1.442-1.777a139.6,139.6,0,0,0,9.892-14.192c.334-.542.668-1.081,1-1.648h21.583a8.765,8.765,0,0,1,3.09.567,1.106,1.106,0,0,0,.594.257A8.778,8.778,0,0,1,494.614,254.794Z" transform="translate(-354.115 -16.222)"/><path class="k" d="M504.036,263.605a8.68,8.68,0,0,1-2.6,6.233,8.309,8.309,0,0,1-2.524,1.777h-.027a1.031,1.031,0,0,0-.54.232,8.962,8.962,0,0,1-3.117.567h-52.1c.67-.542,1.341-1.133,2.009-1.727A134.56,134.56,0,0,0,459.22,256.6c.515-.591,1.032-1.185,1.519-1.8h34.488a8.256,8.256,0,0,1,3.09.591,1.068,1.068,0,0,0,.594.232A8.778,8.778,0,0,1,504.036,263.605Z" transform="translate(-363.537 -6.746)"/><path class="g" d="M483.023,247.727a1.106,1.106,0,0,0,.594.257q-13.138.616-26.271.824c.334-.542.668-1.081,1-1.648.129-.232.282-.465.411-.7.309-.517.594-1.031.9-1.571,7.984.129,15.969.411,23.953.772,0,0-.027,0-.027.025h-.025a1.053,1.053,0,0,0-.49.208h-.025a1.2,1.2,0,0,0-.465.926v.027A1.125,1.125,0,0,0,483.023,247.727Z" transform="translate(-348.242 -17.397)"/><path class="g" d="M489.539,255.729v.027a1.219,1.219,0,0,0,.438.9,1.068,1.068,0,0,0,.594.232c-13.239.616-26.427.953-39.691.978.515-.591,1.032-1.185,1.519-1.8.181-.208.388-.44.567-.67.49-.591.955-1.185,1.442-1.777,12.081.077,24.109.386,36.163.953v.025h-.027a1.042,1.042,0,0,0-.515.208H490A1.245,1.245,0,0,0,489.539,255.729Z" transform="translate(-355.196 -8.014)"/><path class="g" d="M500.406,265.737q-29.323,1.392-58.673.824c.567-.438,1.133-.9,1.7-1.366.413-.309.8-.643,1.185-.978.67-.542,1.341-1.133,2.009-1.727q26.889-.346,53.753.928a1.031,1.031,0,0,0-.54.232,1.117,1.117,0,0,0-.465.9v.027a1.042,1.042,0,0,0,.205.616A1.215,1.215,0,0,0,500.406,265.737Z" transform="translate(-365.032 1.449)"/><g transform="translate(134.779 246.581)"><path class="j" d="M470.324,255.332a1.105,1.105,0,0,1-.608-.255Z" transform="translate(-469.716 -253.026)"/><path class="j" d="M470.248,254.089a1.056,1.056,0,0,0-.508.208Z" transform="translate(-469.69 -254.089)"/></g><path class="c" d="M498.274,139.205c48.153.764,87.684,39.785,89.042,87.925a90.3,90.3,0,0,1-28.928,69.005,13.226,13.226,0,0,0-4.331,9.7v26.018a11.986,11.986,0,0,1-11.984,11.984h-3.759q-41.5,1.946-83.037,0h-3.761a11.986,11.986,0,0,1-11.984-11.984V305.705a12.953,12.953,0,0,0-4.246-9.5,90.554,90.554,0,0,1,62.988-157Z" transform="translate(-403.207 -131.074)"/><path class="b" d="M412.8,276.587a90.567,90.567,0,0,0,15.417,18.667,12.953,12.953,0,0,1,4.246,9.5V330.9a11.986,11.986,0,0,0,11.984,11.984h3.761q41.5,1.946,83.037,0h3.759A11.986,11.986,0,0,0,546.992,330.9V304.884a13.226,13.226,0,0,1,4.331-9.7,90.3,90.3,0,0,0,28.928-69.005c-1.2-42.452-32.083-77.809-72.376-86.095,8.939,7.777,17.5,15.95,24.829,25.217,10.7,13.526,18.727,29.719,19.8,46.941s-5.676,35.405-19.663,45.5c-8.636,6.235-19.868,9.52-25.811,18.364-5.581,8.283-4.888,19.08-5.241,29.061s-2.922,21.386-11.778,26.006c-8.416,4.392-19.078.45-25.993-6.065s-11.291-15.2-17-22.791A78.948,78.948,0,0,0,412.8,276.587Z" transform="translate(-396.143 -130.12)"/><ellipse class="d" cx="49.73" cy="33.686" rx="49.73" ry="33.686" transform="matrix(0.707, -0.707, 0.707, 0.707, 0, 70.33)"/><path class="l" d="M441.162,144.87c-4.707.753-8.109,3.95-7.6,7.138s4.74,5.164,9.448,4.408,8.109-3.95,7.6-7.138S445.869,144.117,441.162,144.87Z" transform="translate(-373.873 -125.142)"/><path class="l" d="M431.826,148.434c-1.511.577-2.418,1.874-2.026,2.9s1.932,1.384,3.441.807,2.418-1.874,2.028-2.9S433.335,147.857,431.826,148.434Z" transform="translate(-377.964 -121.432)"/><g class="m" transform="translate(48.808 111.985)"><path class="l" d="M510.142,192.959c-6.617-3.435-14.6.629-18.177,6.368-3.559,5.654-3.916,12.461-4.23,17.988-.127,2.241-.23,4.483-.357,6.722a54.772,54.772,0,0,1-31.518-2.322c-.189-3.038-.378-6.116-.565-9.153-.44-6.324-1.152-12.461-4.8-17.4a15.072,15.072,0,0,0-10.178-5.842,10.636,10.636,0,0,0-8.294,2.408c-3.287,2.91-4.566,7.937-3.184,12.775,1.258,4.46,4.4,7.957,6.639,10.178A53.947,53.947,0,0,0,450.9,225.316q1.317,25.164.984,50.45c-.042,4.315-.127,8.648-.272,12.963-.021.67-.044,1.32-.064,1.99,1.739.042,3.456.062,5.174.1.021-.691.042-1.4.062-2.094q.156-5.152.21-10.3.439-25.538-.838-50.994a59,59,0,0,0,30.974,2.011c-.042.355-.042.67-.062,1.025v.021q-1.289,29.09-1.55,58.242c-.021.712-.021,1.445-.021,2.156.859,0,1.739-.021,2.576-.042.419,0,.859,0,1.3-.021.419-.021.836-.021,1.276-.042,0-.691,0-1.362.021-2.053.147-20.23.712-40.5,1.677-60.649A53.306,53.306,0,0,0,504.09,222.8c6.137-3.748,9.969-7.916,11.729-12.775a16.433,16.433,0,0,0,.9-5.571C516.614,199.871,514.54,195.242,510.142,192.959Zm-71.035,18.073c-2.912-2.889-4.608-5.423-5.3-7.937-.691-2.408-.44-5.654,1.613-7.476a5.271,5.271,0,0,1,3.559-1.237c.293,0,.544,0,.774.021a10.119,10.119,0,0,1,6.6,3.813c2.827,3.854,3.393,9.153,3.79,14.723.147,2.136.272,4.271.4,6.407A47.933,47.933,0,0,1,439.107,211.033Zm71.873-2.827c0,.042-.021.042-.021.062-1.32,3.707-4.439,7.038-9.549,10.116a45.984,45.984,0,0,1-8.775,4.147c.021-.774.083-1.509.125-2.262.023-.9.085-1.779.127-2.679.251-4.923.585-11,3.435-15.518,1.822-2.912,5.3-5.216,8.565-5.216a6.3,6.3,0,0,1,2.889.67c3.518,1.822,4.483,6.953,3.225,10.639l-.021.021Z" transform="translate(-428.294 -189.238)"/></g></g><g transform="translate(144.578)"><path class="n" d="M458.428,115.282v29.872c0,6.9-10.429,6.9-10.429,0V115.282C448,108.39,458.428,108.377,458.428,115.282Z" transform="translate(-447.999 -110.108)"/></g><g transform="translate(50.522 33.128)"><path class="o" d="M411.969,128l19.2,22.884c4.431,5.28-3.549,11.994-7.988,6.7l-19.2-22.882C399.549,129.422,407.529,122.708,411.969,128Z" transform="translate(-402.681 -126.07)"/></g><g transform="translate(0 119.045)"><path class="p" d="M384.429,167.564l29.418,5.187c6.789,1.2,4.991,11.471-1.81,10.272l-29.418-5.189C375.83,176.637,377.627,166.362,384.429,167.564Z" transform="translate(-378.339 -167.466)"/></g><g transform="translate(16.345 202.377)"><path class="q" d="M388.858,223.324l25.869-14.935c5.971-3.449,11.2,5.579,5.216,9.032l-25.871,14.935C388.1,235.8,382.876,226.776,388.858,223.324Z" transform="translate(-386.214 -207.617)"/></g><g transform="translate(242.905 204.757)"><path class="r" d="M530.978,231.524a5.213,5.213,0,0,1-7.125,1.907L497.984,218.5a5.215,5.215,0,0,1,5.214-9.032L529.068,224.4A5.216,5.216,0,0,1,530.978,231.524Z" transform="translate(-495.375 -208.764)"/></g><g transform="translate(257.565 121.671)"><path class="s" d="M537.976,179.1l-29.418,5.187a5.215,5.215,0,0,1-1.81-10.271l29.418-5.187C542.963,167.631,544.771,177.9,537.976,179.1Z" transform="translate(-502.438 -168.731)"/></g><g transform="translate(218.652 34.844)"><path class="t" d="M512.18,135.527l-19.2,22.884c-4.429,5.28-12.428-1.413-7.988-6.706l19.2-22.882C508.627,123.537,516.614,130.243,512.18,135.527Z" transform="translate(-483.69 -126.896)"/></g></g></g></svg>