<svg xmlns="http://www.w3.org/2000/svg" width="1920" height="356.603" viewBox="0 0 1920 356.603"><defs><style>.a{fill:#42484b;}.b{fill:#9b9b9b;}</style></defs><g transform="translate(3 -371.136)"><path class="a" d="M1917,545.171V727.739H-3V402.8a55.057,55.057,0,0,1,12.238.688c-.027-.413-.082-.824-.082-1.262a31.094,31.094,0,0,1,62.128-1.9,32.686,32.686,0,0,1,4.664-.384,31.026,31.026,0,0,1,27.935,17.481,30.625,30.625,0,0,1,3.157,13.611,30.944,30.944,0,0,1-4.857,16.684,30.23,30.23,0,0,1-6.421,7.3,30.743,30.743,0,0,1,11.224,3.429,31.1,31.1,0,0,1,11.441,10.484,31.048,31.048,0,0,1,1.648,31.2A31.646,31.646,0,0,1,109.4,511.965a42.087,42.087,0,0,1,35.672,27.223,58.091,58.091,0,0,1,55.294-8.945l.03-.027c5.1-8.069,10.288-16.053,16.41-23.162l.027-.027a21.458,21.458,0,0,1-.495-4.637,22.86,22.86,0,0,1,31.093-21.324,41.666,41.666,0,0,1-3.87-17.533,37.808,37.808,0,0,1,.193-3.979,40.361,40.361,0,0,1,1.591-8.208c.383-1.178.767-2.331,1.262-3.457a.164.164,0,0,1,.027-.109v-.027a40.024,40.024,0,0,1,3.952-7.52,38.6,38.6,0,0,1,4.83-5.956l.027-.027v-.027a41.905,41.905,0,0,1,18.77-11.2,41.308,41.308,0,0,1,11.417-1.591,42.133,42.133,0,0,1,40.064,29.17,41.291,41.291,0,0,1,1.781,8.452,31.324,31.324,0,0,1,12.844-9.11,31.1,31.1,0,0,1,18.139-1.126,24.972,24.972,0,0,1,3.979,1.235,31.144,31.144,0,0,1,15.752,13.5A86.885,86.885,0,0,1,390.867,446c2-2.14,4.117-4.2,6.339-6.146l.027-.027a90.887,90.887,0,0,1,7.933-6.176l.027.027v-.027a85.855,85.855,0,0,1,53.866-14.707,83.415,83.415,0,0,1,16.219,2.605,85.432,85.432,0,0,1,27.66,12.926,84.279,84.279,0,0,1,15.121,13.666,81.195,81.195,0,0,1,8.479,11.5c.96,1.536,1.838,3.1,2.69,4.691a84.986,84.986,0,0,1,7.792,20.911,22.981,22.981,0,0,1,10.593-7.215,31.006,31.006,0,0,1,39.874,14.487,29.83,29.83,0,0,1,1.811,4.281,30.753,30.753,0,0,1,1.591,9.826v.109a85.5,85.5,0,0,1,60.534,32.792c0,.027.03.027.03.054a51.315,51.315,0,0,1,41.3-1.425h.027a51.783,51.783,0,0,1,32.436,44.236,53.143,53.143,0,0,1-.139,8.643,30.995,30.995,0,0,1,39.6-4.857,31.5,31.5,0,0,1,7.628,7.025,44.055,44.055,0,0,1,1.618-6.557,48.839,48.839,0,0,1,78.511-22.145,82.523,82.523,0,0,1,3.924-8.344,85.646,85.646,0,0,1,56.969-43.11,84.382,84.382,0,0,1,12.211-1.784A85.315,85.315,0,0,1,986.349,530.6c1.371-2.581,2.744-5.159,4.169-7.683,4.253-7.6,8.947-14.819,15.341-20.72a59.651,59.651,0,0,1,22.227-12.76,95.468,95.468,0,0,1,22.8-4.172,31.517,31.517,0,0,1-1.371-9.3,32.236,32.236,0,0,1,56.83-20.829,48.858,48.858,0,0,1,86.634-5.6v.054a48.782,48.782,0,0,1,4.253,8.863,58.334,58.334,0,0,1,23.9-5.132,57.14,57.14,0,0,1,13.611,1.618h.027a58.933,58.933,0,0,1,40.092,33.728,41.663,41.663,0,0,1,25.384-8.591,41.887,41.887,0,0,1,27.22,10.016,50.6,50.6,0,0,1,5.325-5.763,51.328,51.328,0,0,1,31.337-13.72,53.224,53.224,0,0,1,12.57.658c-.027-.411-.084-.821-.084-1.262a31.094,31.094,0,0,1,62.128-1.893,32.305,32.305,0,0,1,4.667-.383,31.088,31.088,0,0,1,26.233,47.774,30.222,30.222,0,0,1-6.421,7.3,30.778,30.778,0,0,1,11.224,3.429,31.147,31.147,0,0,1,11.444,10.484,31.06,31.06,0,0,1,1.645,31.2,31.619,31.619,0,0,1-10.674,11.827,42.088,42.088,0,0,1,35.672,27.223,58.111,58.111,0,0,1,55.3-8.947l.027-.027c5.1-8.069,10.291-16.053,16.41-23.16l.027-.027a21.481,21.481,0,0,1-.495-4.64,22.854,22.854,0,0,1,31.093-21.321,41.72,41.72,0,0,1-3.87-17.536,37.817,37.817,0,0,1,.193-3.979,40.566,40.566,0,0,1,1.591-8.2c.384-1.208.8-2.415,1.289-3.568v-.027a40.2,40.2,0,0,1,3.952-7.52,38.587,38.587,0,0,1,4.83-5.953l.027-.027v-.027a42.069,42.069,0,0,1,70.251,16.383,41.278,41.278,0,0,1,1.784,8.45,31.339,31.339,0,0,1,12.842-9.11,31.128,31.128,0,0,1,18.139-1.123,24.627,24.627,0,0,1,3.979,1.235,31.126,31.126,0,0,1,15.752,13.5,87.084,87.084,0,0,1,12.678-17.563c2-2.14,4.115-4.2,6.339-6.146l.027-.027a85.713,85.713,0,0,1,61.826-20.883,83.21,83.21,0,0,1,16.217,2.608,85.479,85.479,0,0,1,27.661,12.923,84.192,84.192,0,0,1,15.121,13.666,81.166,81.166,0,0,1,8.479,11.5,84.492,84.492,0,0,1,10.484,25.6A23,23,0,0,1,1917,545.171Z" transform="translate(0)"/><path class="b" d="M1917,478.426v155.7H-3V504.8a119.173,119.173,0,0,1,140.554,99.832,64.238,64.238,0,0,1,77.771-29.719,35.4,35.4,0,0,1,50.932-46.7,46.384,46.384,0,0,1,90.555,11.468,79.584,79.584,0,0,1,80.926-2.907c0-.468-.054-.933-.054-1.428a51.225,51.225,0,0,1,96.375-24.2,76.783,76.783,0,0,1,10.865-8.809v-.794a88.7,88.7,0,0,1,11.854-5.654,75.48,75.48,0,0,1,30.214-6.285c.96,0,1.92.054,2.853.082.3,0,.634.03.935.03h.19c1.784.027,3.6.082,5.406.218a90.075,90.075,0,0,1,52.77,22.009l.027.027c2.333,2.059,4.582,4.226,6.7,6.5a91.212,91.212,0,0,1,13.391,18.553,32.777,32.777,0,0,1,16.657-14.27,26.651,26.651,0,0,1,4.2-1.319,33.1,33.1,0,0,1,7.6-.878,32.352,32.352,0,0,1,11.553,2.086,33.076,33.076,0,0,1,13.584,9.605,44.467,44.467,0,0,1,41.821-39.681c.794-.027,1.591-.054,2.388-.054a46.555,46.555,0,0,1,6.859.522A44.269,44.269,0,0,1,798.978,506v.027l.027.03a43.639,43.639,0,0,1,9.276,14.24v.03a36.759,36.759,0,0,1,1.343,3.786,43.022,43.022,0,0,1,1.7,8.646c.136,1.4.19,2.8.19,4.223a44.117,44.117,0,0,1-4.087,18.526,24.146,24.146,0,0,1,32.847,22.529,22.312,22.312,0,0,1-.522,4.911l.03.027c6.475,7.492,11.963,15.945,17.343,24.451l.027.027a62.264,62.264,0,0,1,20.581-3.568,61.521,61.521,0,0,1,36.029,11.719c.824-.054,1.648-.139,2.472-.22a44.382,44.382,0,0,1,37.046-27.223A33.415,33.415,0,0,1,942,575.652a32.82,32.82,0,0,1,25.683-47.666,31.891,31.891,0,0,1-6.777-7.713,32.859,32.859,0,0,1,27.715-50.491,36.256,36.256,0,0,1,4.939.411,32.939,32.939,0,0,1,32.768-30.842,32.873,32.873,0,0,1,32.874,32.847c0,.465-.054.906-.082,1.344a56.233,56.233,0,0,1,13.28-.713,54.293,54.293,0,0,1,33.124,14.517,51.819,51.819,0,0,1,5.624,6.092,44.193,44.193,0,0,1,28.759-10.593,43.661,43.661,0,0,1,26.809,9.083,60.435,60.435,0,0,1,10.484-16.41,61.2,61.2,0,0,1,31.887-19.238h.027a60.764,60.764,0,0,1,14.381-1.7,61.986,61.986,0,0,1,25.273,5.406,52.358,52.358,0,0,1,4.474-9.358v-.054a51.814,51.814,0,0,1,30.35-23.108,51.045,51.045,0,0,1,13.856-1.893,51.7,51.7,0,0,1,47.336,30.927,34.061,34.061,0,0,1,58.617,31.832,100.582,100.582,0,0,1,24.093,4.392,63.128,63.128,0,0,1,23.491,13.5c6.75,6.23,11.716,13.859,16.217,21.871,1.482,2.69,2.937,5.406,4.392,8.123a90.549,90.549,0,0,1,137.37,27,91.925,91.925,0,0,1,4.145,8.809,51.64,51.64,0,0,1,84.657,30.323,32.809,32.809,0,0,1,49.917-2.279,56.1,56.1,0,0,1-.166-9.138A54.759,54.759,0,0,1,1781.8,544.2h.027a54.339,54.339,0,0,1,43.66,1.509c0-.027.027-.027.027-.054A90.192,90.192,0,0,1,1889.476,511v-.111a32.751,32.751,0,0,1,1.675-10.4,28.456,28.456,0,0,1,1.92-4.5A32.757,32.757,0,0,1,1917,478.426Z" transform="translate(0 27.609)"/></g></svg>